<?xml version="1.0" standalone="no"?>
<!DOCTYPE svg PUBLIC "-//W3C//DTD SVG 20010904//EN"
 "http://www.w3.org/TR/2001/REC-SVG-20010904/DTD/svg10.dtd">
<svg version="1.0" xmlns="http://www.w3.org/2000/svg"
 width="859.000000pt" height="859.000000pt" viewBox="0 0 859.000000 859.000000"
 preserveAspectRatio="xMidYMid meet">
<metadata>
Created by potrace 1.11, written by Peter Selinger 2001-2013
</metadata>
<g transform="translate(0.000000,859.000000) scale(0.100000,-0.100000)"
fill="#000000" stroke="none">
<path d="M6694 6701 c-55 -17 -55 -17 -106 -63 -47 -42 -285 -383 -548 -786
-113 -172 -328 -500 -479 -730 -150 -229 -281 -429 -290 -444 -9 -16 -18 -28
-21 -28 -3 0 -14 15 -25 33 -10 17 -37 61 -60 97 -24 36 -86 135 -140 220
-213 337 -294 459 -320 483 -70 63 -196 73 -273 22 -65 -43 -87 -86 -87 -170
0 -87 17 -121 199 -402 237 -366 379 -585 401 -617 7 -11 -13 -47 -75 -138
-69 -101 -732 -1068 -1114 -1625 -50 -73 -115 -167 -143 -209 -66 -96 -96
-172 -99 -248 -3 -66 8 -98 45 -139 30 -34 97 -70 112 -62 5 4 15 2 22 -3 14
-10 62 -9 92 2 114 43 122 52 313 326 139 199 178 258 497 745 492 752 647
987 650 983 5 -5 346 -541 364 -571 63 -109 171 -255 209 -282 40 -27 51 -30
122 -30 71 0 82 3 122 30 59 42 88 96 88 165 -1 99 -5 106 -382 687 l-229 353
402 587 c222 324 421 615 444 648 72 104 149 216 230 335 144 211 188 274 242
353 137 194 160 338 70 428 -29 29 -82 56 -99 51 -5 -1 -8 1 -8 6 0 13 -75 9
-126 -7z"/>
<path d="M900 5438 c-342 -32 -601 -200 -679 -441 -28 -89 -33 -120 -33 -206
2 -270 151 -459 460 -580 58 -23 277 -88 325 -96 17 -3 33 -8 37 -10 4 -2 22
-7 41 -10 89 -15 253 -70 314 -107 102 -61 149 -139 149 -248 -1 -158 -130
-287 -327 -325 -98 -19 -255 -13 -329 13 -137 48 -202 121 -291 323 -63 143
-118 191 -218 190 -123 0 -203 -86 -203 -216 1 -162 106 -351 267 -479 126
-100 309 -166 502 -182 62 -4 247 -5 298 0 257 25 486 135 618 299 105 131
151 280 143 469 -6 158 -54 279 -153 381 -120 126 -286 200 -671 298 -303 78
-348 94 -431 155 -62 45 -90 91 -96 158 -14 142 120 261 319 282 84 9 92 9
171 1 162 -18 246 -84 347 -275 52 -99 101 -148 158 -161 105 -22 187 19 237
119 19 37 29 157 14 166 -5 3 -9 14 -9 26 0 36 -60 144 -112 202 -105 118
-293 218 -453 241 -22 3 -54 8 -70 11 -50 9 -235 10 -325 2z"/>
<path d="M7297 5439 c-61 -9 -125 -47 -175 -104 -43 -49 -78 -123 -176 -375
-35 -91 -190 -486 -345 -879 -155 -392 -284 -727 -287 -745 -17 -98 1 -157 69
-218 53 -48 95 -62 172 -56 78 7 107 26 150 99 33 57 147 348 227 579 21 63
43 124 48 135 5 11 17 47 28 80 11 33 39 112 62 175 52 144 107 296 204 569
85 238 92 254 100 231 3 -8 73 -202 157 -430 83 -228 158 -435 166 -460 8 -25
19 -54 24 -65 5 -11 25 -65 44 -120 119 -344 245 -656 290 -718 34 -49 94 -77
161 -77 76 1 130 25 177 81 64 74 69 146 22 279 -13 36 -103 261 -200 500 -97
239 -255 631 -351 870 -97 239 -189 458 -205 487 -74 129 -201 186 -362 162z"/>
<path d="M2567 5395 c-97 -19 -153 -69 -179 -159 -15 -52 -21 -1891 -6 -1976
23 -128 101 -199 223 -201 118 -3 210 80 231 208 4 21 7 193 8 383 l1 345 255
1 c305 1 394 8 514 39 300 76 464 248 510 535 47 301 -58 580 -269 715 -51 32
-141 73 -179 81 -51 11 -114 23 -156 30 -74 11 -893 11 -953 -1z m753 -349
c222 -28 324 -121 337 -311 17 -229 -108 -353 -382 -381 -30 -3 -288 -6 -381
-5 l-51 1 0 348 c0 191 4 349 8 352 12 8 402 4 469 -4z"/>
</g>
</svg>
