<svg version="1" xmlns="http://www.w3.org/2000/svg" width="346.667" height="346.667" viewBox="0 0 260.000000 260.000000"><path d="M126.8 6.6c-.2.1-2.3.3-4.8.5s-4.8.8-5.2 1.4c-.5.6-.8.5-.8-.3 0-.7-.4-1.1-.8-.8-.9.5-4.9 1.4-10.1 2.1-1.8.3-3.8.8-4.5 1.2-1.1.8-2.8 1.2-5.8 1.5-1 .1-1.8.5-1.8.9s-1.5 1-3.3 1.3C84 15.5 64.9 25.6 55.8 32.3c-4.8 3.6-8.4 6.7-8.1 7.1.4.3.1.6-.6.6-2.6 0-20.7 21-23.9 27.7-.9 1.8-1.9 3.3-2.4 3.3-.4 0-.8.5-.8 1 0 .6-1.1 2.7-2.4 4.8-1.2 2-2.4 3.9-2.4 4.2-.1.4-1.2 3.2-3.7 9.5-.5 1.1-.9 2.2-1 2.5-1.5 4.9-3.8 12.6-4 13.9-.2.9-.4 1.6-.5 1.6-.4 0-1.9 9-2.7 16-1.3 11.2-.4 32.6 1.6 37.7.8 2 .7 2.8 0 2.8-.8 0-.8.4-.1 1.2.6.7 1.1 1.7 1.2 2.3.2.5.4 1.4.5 2 .2.5.9 3.2 1.6 6 .6 2.7 1.5 5.4 1.8 6 .3.5.6 1.5.7 2.1.1.6 1.8 4.5 3.7 8.7 2 4.2 3.3 7.7 2.9 7.7-.4 0-.2.4.4.8.6.4 2.4 2.9 3.9 5.7 6 10.4 22 29.5 24.7 29.5.5 0 .8.6.8 1.4 0 .8.8 1.7 1.8 2 .9.3 3.7 2.4 6.1 4.6 2.4 2.2 4.6 4 5 4 .3 0 1.8 1.1 3.3 2.5 3.4 3.1 5.1 3.2 7.1.2s1.4-3.8-6-8.6c-3.3-2.1-7.3-5-8.8-6.2-4.4-3.8-15.6-14.9-15-14.9.3 0-.7-1.3-2.2-2.9-3.7-3.8-6.3-7.1-7.6-9.9-.5-1.2-1.4-2.2-1.9-2.2s-.7-.4-.3-.9c.3-.5.1-1.3-.5-1.6-1.6-1-10-18.2-9.3-18.9.4-.3.2-.6-.4-.6-.6 0-1.4-1.5-1.8-3.3-.4-1.7-.9-3.7-1.1-4.2-.1-.6-.7-2.4-1.2-4.2-.6-1.7-.8-3.4-.4-3.7.3-.3.1-.6-.4-.6s-1-.8-1.1-1.8c-.1-.9-.5-3.5-.9-5.7-.5-2.2-.8-5.5-.8-7.3 0-1.7-.3-3.2-.6-3.2-.8 0-.4-25.5.4-29.5 1.3-6.7 2-10.1 2.1-11.5.1-.8.4-2.2.8-3 1-2.6 3.1-10.5 2.9-11.3-.1-.4.3-.7.8-.7s.9-.3.8-.8c-.1-.4.4-2 1-3.5.7-1.6 1.2-3.3 1.2-3.8s.4-.9 1-.9c.5 0 1-.3.9-.8-.2-1.5 1.4-5.2 2.2-5.2.5 0 .8-.3.7-.8-.3-.9 4.2-8.4 5.6-9.4.6-.4.7-.8.3-.8-.9 0 5.2-8.3 6.5-8.8.5-.2.8-.8.8-1.3 0-.6 3.8-4.9 8.5-9.6 4.7-4.7 8.5-8.3 8.5-7.9 0 .4 1-.3 2.3-1.4 1.2-1.2 3.7-3 5.5-4.1 1.7-1.2 3.2-2.6 3.2-3.1 0-.6.3-.8.6-.5.4.4 1.9-.2 3.4-1.3 1.6-1.1 3.3-2 3.9-2 .6 0 1.1-.5 1.1-1.1 0-.5.5-.7 1-.4.6.3 1 .1 1-.4 0-.6.3-1 .8-.9.4.1 2.1-.5 3.7-1.2 1.7-.7 3.3-1.3 3.8-1.2.4.1.7-.3.7-1 0-.6.3-.8.7-.5.3.4 1.1.3 1.7-.2.6-.5 3.1-1.5 5.6-2.2 5.6-1.6 5.2-1.5 7-2.2.8-.4 2.6-.9 4-1.1 1.4-.3 2.5-.5 2.5-.6 0-.1 1.1-.3 2.5-.4 1.4 0 3-.4 3.5-.7.6-.3 2.7-.5 4.8-.4 2 .1 3.7-.2 3.7-.5 0-1.3 25.5-.2 34.5 1.5 1.1.2 3.8.7 6 1.1 2.2.3 4.2.9 4.5 1.3.3.3 1.6.8 3 .9 1.4.2 3.1.9 3.8 1.4.6.6 1.2.7 1.2.3 0-.4.7-.2 1.5.5.8.6 1.9.9 2.5.5.5-.3 1-.1 1 .4 0 .6.7 1.1 1.5 1.1s1.5.5 1.5 1.1c0 .6.6.9 1.2.7.7-.3 3.4.8 6.1 2.4 2.6 1.5 5.1 2.8 5.5 2.8.8 0 4.6-6 4-6.4-3.9-2.4-11-5.6-11.7-5.2-.5.4-1.1.2-1.3-.4-.1-.5-1.2-1.1-2.3-1.3-1.1-.1-2.4-.5-3-.8-1.1-.7-8.7-3.3-9.7-3.4-.3 0-1-.3-1.4-.8-.4-.4-1.8-.7-3.1-.7s-2.3-.3-2.3-.8c0-.4-1-.7-2.2-.8-1.3 0-4-.4-6-.7-8.7-1.6-11.6-1.9-20.4-2.1-5.2-.2-9.5-.2-9.6 0z"/><path d="M125.5 20c-.2.3-2.5.7-5.2.8-2.6.1-6.1.6-7.8 1-1.6.5-4 .8-5.2.7-1.3-.1-2.3.3-2.3.8 0 .6-.2.8-.5.5-.8-.8-14.8 4.3-23.3 8.5C67.5 39.1 52.1 51.4 42 63.5c-5.6 6.8-16.5 25.5-17.4 30-.1.5-.7 2-1.4 3.1-.6 1.2-.8 2.4-.5 2.8.3.3.2.6-.4.6-.5 0-1 .6-1.1 1.2 0 1.4-.2 2.1-2.5 10.4-.7 2.9-1.2 5.9-1.1 6.8.1.9-.1 1.6-.6 1.6-.4 0-.6 1.2-.4 2.7.1 1.5-.2 3.5-.7 4.4-.6 1.2-.5 2 .1 2.4.6.4.7 1.2.3 1.8-.9 1.3-.8 12.4.2 20.2.3 2.7.7 6.1.9 7.5.1 1.4.6 3.2 1 4.1.4.9.6 2 .5 2.5-.3 1.1 1.9 9.2 3.2 11.6.5 1 .9 2.2.9 2.8 0 2.2 8.6 19 13.3 26C46.8 221.5 60 234 60 228.4c0-.8.5-1.2 1-.9.6.3 1-.3 1-1.5s-.9-2.4-2.2-3c-1.3-.5-2-.9-1.7-.9.3-.1-1.7-2.5-4.5-5.4-2.9-2.8-6.5-7-8.1-9.2-1.7-2.2-3.2-4.2-3.5-4.5-.3-.3-1-1.4-1.6-2.5-.6-1.1-2.4-4.5-4.1-7.5-2.5-4.6-5-10.6-9.9-23.5-.4-1.1-.6-2.4-.5-2.9.1-.5-.1-1.6-.5-2.5-.8-1.9-1.2-4.3-1.6-9.1-.2-1.9-.7-3.8-1.3-4.3-.6-.4-.4-1.1.5-1.7.8-.5 1-1 .5-1-1.1 0-1.2-19-.1-24.5.4-1.7.9-4.8 1.2-7 .4-2.2 1-4.8 1.5-5.8.6-.9.8-1.7.5-1.7-1.6 0 8.9-24.3 12.2-28.3.8-.9 1.2-1.7.8-1.7-.4 0 .3-1.3 1.6-2.9 1.2-1.6 3.4-4.4 4.8-6.3 1.4-1.8 3.7-4.5 5.2-6.1 1.4-1.5 2.4-2.7 2.1-2.7-.3 0 1.1-1.4 3.2-3 2.1-1.7 4.3-3.6 4.9-4.3 1.6-2 8.6-7.2 12.1-9 1.7-.9 2.6-1.7 2-1.7-.5 0 1.3-1.1 4.1-2.3 2.8-1.2 5.8-2.8 6.6-3.4.8-.7 2.3-1.4 3.4-1.7 4.1-.9 6.4-1.9 6.4-2.8 0-.5.4-.6 1-.3.5.3 1.8.1 2.8-.4 1.1-.6 3.4-1.3 5.3-1.6 1.8-.3 3.6-.9 3.9-1.3.3-.4 2.2-.7 4.3-.7 2.2 0 4.1-.3 4.2-.6.2-.3 2-.5 4-.4 1.9 0 3.5-.2 3.5-.5s4-.5 9-.5c4.9 0 9 .2 9 .5s1.8.5 4 .4c2.2 0 4 .2 4 .5 0 .4.8.7 1.8.8 4.6.2 8.2.8 8.2 1.3 0 .3 1.2.7 2.6.8 1.5.1 3.2.6 3.9 1.2.6.5 1.5.7 1.8.3.4-.3.7-.1.7.6s.4 1 .9.6c1.1-.6 10.2 3.4 11.3 5 .4.5.8.6.8.1s.6-.3 1.3.3c.8.6 1.7.8 2 .4.4-.3.7-.1.7.6s.5.9 1 .6c.5-.3 1-.2 1 .3s1.4 1.5 3 2.2c1.7.7 3 1.6 3 2.1 0 .4.8 1 1.8 1.3.9.4 3.2 2 5.1 3.6 3.2 2.8 3.4 2.9 5.5 1.2 1.3-.9 2.1-2.3 1.9-3.2-.4-1.6-14.3-11.6-15.5-11.2-.5.1-.8-.2-.8-.7 0-.5-1-1.3-2.2-1.7-1.3-.3-3-1.2-3.8-1.9-1.3-1-10.4-4.9-12-5-.3-.1-1.5-.6-2.6-1.3-1.2-.6-2.4-.8-2.8-.5-.3.3-.6.2-.6-.4 0-.5-.6-1-1.2-1.1-4.2-.3-8.1-1.2-9.4-2.3-1-.8-1.4-.9-1.4 0 0 .8-.5.9-1.8.2-2.8-1.5-28.9-3.3-29.7-2.1z"/><path d="M131 32.7c0 .5-2.1.9-4.7.9-5.6.1-10.5.8-18.8 3-3.3.8-6.6 1.6-7.2 1.6-.7.1-1.3.5-1.3 1 0 .4-.3.7-.7.7-.8-.1-1.2 0-3 .6-.5.2-1.8.6-3 1-1.3.4-2.3 1-2.3 1.4 0 .4-.9.7-2.1.8-1.2.1-2.7 1-3.5 2-.7 1-1.4 1.4-1.4.9 0-.5-.9-.1-2 .9s-2 1.4-2 .9c0-.5-.4-.4-.8.1-.4.6-2.7 2.4-5.1 4-2.5 1.7-6.6 5.1-9.3 7.6-2.6 2.5-5 4.4-5.3 4.1-.3-.3-.5 0-.5.7 0 .6-1.3 2.4-2.9 4-1.6 1.6-4.1 4.7-5.6 7-1.5 2.2-3.2 4.1-3.7 4.1s-.7.4-.4.9c.3.5-.1 1.4-.9 2.1-.8.7-1.2 1.6-.9 2.1.3.5 0 .9-.5.9-.6 0-1.1.7-1.1 1.5s-.4 1.5-1 1.5c-.5 0-.9.3-.8.7.1.5-.3 1.9-.9 3.3-.6 1.4-1.1 2.9-1.3 3.5-.1.5-.9 1.8-1.7 2.7-.9 1-1.3 1.8-1 1.8.4 0 .1 1.7-.7 3.7-.8 2.1-1.7 4.7-2.1 5.8-.5 1.1-.9 3.1-1 4.5-.1 1.4-.3 2.5-.5 2.5s-.8 4.1-1.3 9c-.2 1.1-.6 2.6-1 3.2-.5.8-.3 1.3.3 1.3s.8.5.5 1c-.6 1-.6 10.7 0 19.5.1 2.2.8 6 1.5 8.5.6 2.5 1.4 5.4 1.6 6.4.2 1.1 1.1 4.2 2.1 7 .9 2.8 1.8 5.3 1.8 5.6.2 1.2 4.9 10.5 5.5 11 .4.3 1.3 2 2.1 3.8.8 1.7 1.8 3.2 2.2 3.2.5 0 .5.4.2 1-.3.5-.1 1 .5 1s1.5 1.1 2 2.5 1.6 2.8 2.5 3.1c.8.3 1.2 1 .9 1.5-.8 1.4 1.9 1 3.9-.5 2.5-1.9 2.2-3.1-2.9-9.7-2.5-3.2-4.2-5.9-3.9-5.9.4 0-.2-1.2-1.3-2.8-1.8-2.5-6.9-13.7-7.7-17.2-.2-.8-.8-3-1.4-4.9-.6-1.8-1-3.6-.9-4 0-.3-.1-.8-.2-1.1-2-5.2-3.3-25.7-1.7-27.8.6-.8.6-1.2-.2-1.2-.7 0-.9-.5-.5-1.1.3-.6.8-2.5.9-4.2.7-6.9 3.7-18.7 4.8-18.7.4 0 .6-.4.3-.9s.1-2.2.9-3.7c.8-1.6 1.5-3.7 1.5-4.7s.4-1.5 1-1.2c.9.5 1.2-.8.9-3.1 0-.4.3-1 .8-1.3.5-.3 2.2-2.9 3.8-5.6 1.5-2.8 3.1-5.2 3.5-5.5.3-.3 1.3-1.5 2.2-2.8 1.8-2.7 10.4-11.7 14.2-15 9-7.7 26.3-17.3 33.6-18.6.8-.2 2.2-.6 3-.9 3.7-1.4 14.9-3.3 19.2-3.3 2.7.1 4.8-.1 4.8-.4 0-.3.9-.6 2-.6s2 .4 2 .8c0 .5.8.4 1.9-.1 1-.6 2.1-.7 2.5-.4.3.4 2.8.8 5.4 1 4.5.3 8.7 1 8.7 1.3 0 .1 1.2.3 2.6.4 1.4.2 3.5.6 4.5 1.1 1 .4 2.5.9 3.1 1.1 3.1.6 10.9 3.9 11.5 4.8.5.7.8.7.8.1 0-.7.3-.7.8 0 .4.5 2.3 1.8 4.2 2.7 6.7 3.3 11.6 6.7 17.1 12 1 .9 2 1.4 2.3 1 .3-.3.6.2.6 1.2 0 .9.3 1.5.8 1.3.4-.3 2.1 1.3 3.7 3.4 2.9 3.7 5.5 5 5.5 2.8 0-.5.4-.8.9-.4.5.3 1.2-.4 1.6-1.4.5-1.5-.7-3.3-4.8-7.3-8.2-8-12.5-11.8-13.7-11.8-.5 0-1-.3-1-.8 0-.4-3.4-2.5-7.5-4.7s-7.5-4.4-7.5-4.8c0-.5-.4-.6-.9-.3-.4.3-2.7-.3-4.9-1.4-2.3-1.1-4.8-2-5.7-2-.8 0-1.5-.4-1.5-.9 0-.6-.9-.8-2-.6-1.1.2-2 .1-2-.3 0-.8-2.2-1.3-6.7-1.6-1.3 0-2.3-.4-2.3-.8s-.9-.5-2-.3-2 .1-2-.3-3.7-.8-8.2-1c-4.5-.2-8.5-.5-9-.8-.4-.3-.8-.1-.8.3z"/><path d="M124.6 46.9c-.2.3-2.5.6-5 .6s-4.6.2-4.6.5-1.2.7-2.6.8c-1.4.1-3.1.5-3.7.9-.7.4-1.6.8-2.2 1-4 .8-5.8 1.5-12.2 4.7-3.9 1.9-7.4 4-7.8 4.6-.3.5-1.1.8-1.6.5-.5-.4-.9-.1-.9.4 0 .6-.5 1.1-1.1 1.1-.6 0-1.6.6-2.4 1.2-.7.7-3.2 2.9-5.6 4.8-4.3 3.6-9.3 8.4-11.9 11.7-4.1 4.9-11.4 16.8-11.5 18.6 0 .4-.6 1.1-1.3 1.6-.8.5-1.3 1.1-1.2 1.5.2.6-1.1 5.4-2 7.1-.1.3-.3.8-.4 1.2-.2.5-.8 2.8-1.5 5.3s-1.4 5.9-1.5 7.6c-.2 1.6-.5 3.4-.8 4-.3.5-.5 4.8-.4 9.6 0 4.9-.3 8.8-.8 8.8s-.4.6.2 1.3c.6.7 1.1 2.2 1 3.2 0 3 1.1 10.1 2.1 12.7.5 1.3 1 2.7 1.1 3.3.6 2.5 1.4 4.5 4.3 11.7 3.3 8.1 4.5 9 8.2 6.2 2.2-1.6 2.2-1.6-.7-5.6-1.1-1.6-1.6-2.8-1.2-2.8.3 0 .2-.6-.3-1.2-.8-1-3.1-6.8-3.8-9.8-.1-.3-.5-1.2-.8-2-1.5-3.2-2.8-14.8-2.8-23.5 0-7 .5-11.9 1.5-16.5.4-1.4.9-3.9 1.2-5.5.3-1.7 1.2-4 2-5.3 1-1.5 1.1-2.2.3-2.2-.7 0-.5-.8.5-1.9 1-1.1 1.8-2.6 2-3.4.1-.8.7-2.1 1.2-2.8 1.4-1.7 2.8-5.2 2.6-6.2-.1-.4.2-.7.7-.7.5 0 2-1.9 3.4-4.3 3-5 18.9-21.3 21.2-21.7.3 0 2-1 3.9-2.1 2-1.1 3.7-1.9 3.9-1.7.2.2 1.1-.5 2.1-1.4 1-1 2.9-2.1 4.4-2.5 1.5-.3 2.9-1 3.2-1.4.3-.4 1.7-1 3.2-1.3 1.4-.2 3.6-.9 4.7-1.6 1.2-.6 2.1-.9 2.1-.6 0 .2 1.9-.1 4.3-.6 2.3-.5 7.7-1.1 11.9-1.3 4.3-.2 8.2-.6 8.8-1 .5-.3 1-.2 1 .3s1.2.8 2.8.7c1.5-.1 4.8.4 7.5 1.1 2.6.7 4.7 1.1 4.7.9 0-.2 1.7.3 3.8 1.2 2 .8 3.7 1.5 3.7 1.3 0-1 15.9 6.7 18.1 8.9 1.2 1.1 2.5 1.7 2.8 1.4.3-.4.6-.1.6.5 0 .7.5 1.2 1 1.2 1.9 0 14.2 11.5 13.3 12.4-.4.3.1.6 1 .6 1 0 1.7.4 1.7.8 0 .5 1.5 2.9 3.2 5.3 1.8 2.4 3.3 4.7 3.3 5.1 0 1.5 1.4 1.8 3.9.9 2.9-1.2 3.5-4.1 1.1-6.1-.8-.7-1.5-1.9-1.5-2.6 0-.8-.5-1.4-1-1.4-.6 0-1.3-.8-1.7-1.8-1-2.6-15.2-16.5-20.3-19.8-2.5-1.6-4.8-3.3-5.2-3.9-.4-.5-.8-.7-.8-.3 0 .4-1.6-.4-3.6-1.7-2-1.4-4.3-2.5-5-2.5-.8 0-1.4-.5-1.4-1.1 0-.6-.6-.9-1.4-.6-.7.3-2.2 0-3.2-.7-1.1-.7-4.1-1.8-6.9-2.5-2.7-.7-5.7-1.5-6.5-1.9-.8-.3-2.9-.6-4.5-.7-1.7 0-3.6-.4-4.2-.8-.6-.4-1.4-.3-1.8.3-.4.6-1.2.7-1.8.3-1.4-.9-15.6-1.2-16.1-.4z"/><path d="M129.8 59.5c-.2.2-2.8.5-5.8.8-3 .4-8 1.4-11 2.3-3 1-5.7 1.8-6 1.9-2.8.6-8 3.1-8 3.9 0 .5-.3.7-.6.3-.6-.6-9.4 4.5-12.6 7.3-7.6 6.6-15 14.9-18.3 20.6-2.2 3.8-3.9 7.2-3.7 7.6.1.4-.2.8-.7.8-1.1 0-5.2 11.6-4.3 12.4.3.3.1.6-.4.6s-1 .8-1 1.7c-.1 2.8-.8 4.7-1.9 5.5-.6.5-.5.8.2.8.9 0 1 .7.4 2.2-.7 1.9-.8 22.3-.2 22.3.2 0 .4 1.1.7 2.5 1.9 11.2 3.8 14.6 6.8 12.1.7-.6 1.6-.8 1.9-.4.9.9.8-.5-.4-5.2-1.2-4.6-1.6-6.8-2.3-11.2-.2-1.8-.7-3.6-1-4.1-.2-.4-.1-1.4.4-2.2.5-.9.5-1.9-.2-2.7-.6-.7-.7-1.3-.2-1.3.5 0 .9-2.1 1-4.8.1-10.8 3.3-20.9 10.7-33 3.2-5.3 12.9-16 17.8-19.7 3.7-2.7 7.5-4.9 8.2-4.7.4.1.7-.3.7-.8 0-.6.9-1 1.9-1 1.1 0 2.2-.4 2.6-.9.6-1 8.7-3.9 13.2-4.7 1.5-.3 4.4-.9 6.3-1.3 4.1-.9 24.5-.2 24.5.9 0 .1.9.3 2 .5 3.4.6 10 2.8 11 3.7.5.4 1.7.8 2.6.8.9 0 2.2.7 2.9 1.5.7.8 1.6 1.2 2.1.9.5-.3.9 0 .9.5 0 .6.6 1.1 1.3 1.1.8 0 2.2.9 3.2 2s2.2 2 2.7 2c.9 0 11 10 14.3 14.1 2.6 3.3 4.2 6 8.1 13.8 1.8 3.6 3.4 5.9 3.8 5.2.4-.6 1.6-1.1 2.7-1.1 1 0 1.9-.4 1.9-.9 0-1.7-4.1-10.6-5.7-12.4-.9-.9-1.3-1.7-.9-1.7.9 0-8.1-11.7-11.5-15-5.8-5.5-14.1-12-15.4-12-.4 0-1.3-.7-2.2-1.5-.8-.8-1.9-1.3-2.4-1-.5.4-.9.1-.9-.4 0-.6-.9-1.1-1.9-1.1-1.1 0-2.1-.4-2.3-.8-.4-1-14.1-5.2-18.8-5.8-4.7-.6-15.9-1.2-16.2-.9z"/><path d="M133.9 72.4c-.2.2-2.9.5-5.9.7-3 .2-6.1.8-6.9 1.4-1.1.8-1.3.7-.7-.4.6-.9 0-.8-1.7.4-1.5.9-3.1 1.4-3.7 1-.5-.3-1-.2-1 .4 0 .5-.9.8-2 .6-1.1-.2-2 0-2 .4 0 .5-.9 1.1-2 1.4-1.1.3-2.4.6-2.8.7-3.8 1.2-26.1 20-23.6 20 .3 0-.5 1.3-1.8 2.9-1.4 1.5-3 4.2-3.7 6-.8 1.7-1.8 3.1-2.3 3.1-.5 0-.8.6-.7 1.2.1.7-.3 2.6-1 4.3-.7 1.6-1.4 3.9-1.6 5-.2 1.1-.7 3.6-1.1 5.5-.4 1.9-.7 7.7-.7 12.8 0 10 1 12.5 3.9 10.1 1.1-.9 1.5-.9 1-.2-.5.9-.2 1.1.9.7 1.2-.5 1.4-1.6.9-5.3-.3-2.5-.8-4.9-1.1-5.4-.2-.4-.1-.7.4-.7.4 0 .8-1.9.7-4.3 0-2.3.6-6.5 1.3-9.2.8-2.8 1.5-5.5 1.7-6.2.6-3 7.9-16.2 8.7-15.7.5.3.9-.1.9-.9 0-1.7 9-10.3 14.8-14 4.1-2.6 12.6-6.4 16.7-7.4 6.9-1.6 17.5-2.2 17.5-1 0 .5.6.4 1.4-.2.8-.7 1.7-.8 1.9-.4.3.5 1.8 1 3.4 1.1 4.3.4 5.7.7 7.1 1.5.6.5 1.2.5 1.2.2s3.7 1.3 8.3 3.7c11.1 5.8 21 15.6 26.1 25.9 2 4.1 3.9 8.4 4.1 9.5.2 1 .4 2 .5 2.1.4.4.7 2.1.9 3.7.1 1 1.1 1.4 3.4 1.2 2.9-.2 3.2-.6 3.2-3.3 0-1.7-.4-2.9-.9-2.6-.5.3-.6 0-.4-.8.3-.8-.5-3.8-1.8-6.7-1.3-2.8-2-5.2-1.6-5.2.4 0 .2-.4-.3-.8-.6-.4-2.6-3.2-4.6-6.2-3.6-5.5-13-16-14.3-16-.4 0-1.5-.8-2.6-1.8-2.8-2.6-13.6-8.2-14.4-7.5-.3.4-.6.1-.6-.6 0-.6-.6-1.1-1.2-1-.7.1-2-.1-2.8-.4-.8-.4-2.6-.8-4-.9-1.4-.2-2.9-.6-3.5-.9-.5-.3-3-.7-5.4-.8-2.5-.1-4.8-.4-5.1-.6-.4-.3-.9-.3-1.1-.1z"/><path d="M122.3 87.5c-5.7 1.3-16.7 6.4-20 9.2-4.9 4.1-5.9 5.1-7.9 7.5-1.1 1.3-2.9 3.9-4 5.6-1 1.8-2.2 3.2-2.6 3.2-.4 0-.7.3-.6.7.1.5-.3 1.8-1 3-.7 1.3-1 2.3-.6 2.3.3 0 0 1-.8 2.2-1.5 2.2-3 9.5-3.3 15-.1 2 .4 2.7 2.1 3.1 3.5.6 4.8-.8 5-5.5.1-2.4.3-4.4.4-4.6.1-.1.3-.5.4-1 1.1-4.7 5.1-13.3 8.1-17 2.1-2.8 8.2-8.8 10.1-10 3-2 10.8-5.5 12.2-5.5.6 0 1.2-.5 1.2-1s.7-.7 1.5-.3c.8.3 1.5.2 1.5-.3 0-.4 1.4-.7 3-.6 1.7.1 3-.2 3-.6 0-.5.6-.6 1.3-.4.6.2 3.7.6 6.7.9 11.7.9 22 6.1 30.8 15.5 2.8 3.1 7.8 11.6 7.1 12.3-.1.2.4 1.4 1.1 2.8.8 1.4 1.3 3.1 1.2 3.7-.2.7.1 1.3.5 1.3s.9 2.1 1 4.6c.3 5.5.3 5.5 4.1 5.8 2.9.2 3 .1 2.6-4.4-.2-2.5-.5-5.2-.7-6-1.1-4.4-2-7.6-2.6-8.5-.3-.6-.6-1.5-.7-2.1-.1-.7-1.5-3.3-3-5.9-1.6-2.5-3.5-5.6-4.1-6.8-.7-1.2-1.3-1.8-1.3-1.4 0 .5-1.1-.4-2.4-2-2.7-3.3-11.6-9.8-11.6-8.6 0 .4-.5 0-1.1-1-.6-.9-1.4-1.5-1.9-1.2-.5.3-1.1.1-1.5-.5-2.1-3.5-23.7-5.8-33.2-3.5z"/><path d="M128.7 99.6c-.1.2-1.5.5-3 .8-4.3.8-9.7 2.9-9.7 3.9 0 .4-.4.6-.8.3-.5-.3-2 .5-3.3 1.7-1.3 1.2-2.7 2.2-3 2.2-1.9 0-10.3 11.9-11.1 15.5-.2.8-.6 1.7-1 2-.4.3-.9 1.8-1.2 3.3-.4 2.2 0 2.8 2 3.3 3.2.8 5.5-.2 4.8-2.1-.3-.8-.1-1.5.5-1.5s1-.3 1-.8c-.1-.4 0-1 .1-1.5.1-.4.3-1 .4-1.5.3-1.7 4.3-6.9 7.3-9.7 5.4-5.1 5.9-5.4 12-7.4 13.9-4.6 27.8.2 37.9 13.1 2.6 3.3 5.2 12.5 5 18-.1 4.9.2 5.8 1.9 6.2 4.9 1.4 5.2 1 4.9-6.2-.3-7.4-.5-8.7-2.8-15-1.9-5.2-3.4-7.4-9.1-13.3-4.6-4.7-12.8-9.4-18.6-10.5-3.6-.7-13.7-1.2-14.2-.8z"/><path d="M130 113c0 .3-1.1.7-2.5.8-3.6.3-7.7 2.6-11.6 6.5-6.3 6.3-7.3 9.5-3.4 11.3 2.2 1.1 2.6.9 4.6-2.2 1.1-1.9 2.5-3.4 3-3.4.6 0 .7-.5.4-1-.3-.6.1-1 .9-1 .9 0 1.6-.3 1.6-.8 0-2 10.5-4.8 11.6-3 .3.5 1.1.4 1.9-.2.9-.8 1.5-.8 2 0 .3.6 1 .8 1.5.5.5-.3 1.4 0 2.2.7.7.7 2.5 1.9 4 2.7 1.5.8 2.5 1.8 2.2 2.3-.3.4 0 .8.6.8.8 0 3 3.7 3.4 6 .1.3.4.9.7 1.5.4.5.5 3.5.3 6.7-.2 5.3-.1 5.7 2.3 6.3 3.6.9 4.6-.9 4.6-8.5-.1-9.8-6-19.5-14-23.1-1.8-.7-3.3-1.7-3.3-2 0-.3-.6-.6-1.2-.7-7.4-.6-11.8-.7-11.8-.2z"/><path d="M133.5 126c-.4.6-1.5.8-2.6.5-1.1-.4-1.9-.2-1.9.4 0 .6-.7 1.1-1.5 1.1s-1.5.5-1.5 1.1c0 .5-.4.8-.9.5-1.3-.9-2 3.1-.8 4.3 1.5 1.5 5.7 1.4 5.7-.1 0-.6.3-.9.6-.5.3.3 1.6.2 2.8-.3 3.4-1.3 7.3 2.5 7 6.8-.1 2.4.4 3.6 2 4.4 3.3 1.9 4.5 1.8 4.1-.3-.2-1 0-1.9.4-1.9 1.1 0 .5-5.4-.9-8.1-1.8-3.5-5.2-6.9-6.1-6.3-.5.3-.9 0-.9-.6 0-.7-.6-1-1.4-.7-.7.3-1.8.1-2.4-.5-.6-.6-1.2-.6-1.7.2z"/></svg>